Coordinates
version=1
nRows=37
nColumns=38
inDegrees=no

Units are S.I. units (second, meters, Newtons, ...)
If the header above contains a line with 'inDegrees', this indicates whether rotational values are in degrees (yes) or radians (no).

endheader
time	pelvis_tilt	pelvis_list	pelvis_rotation	pelvis_tx	pelvis_ty	pelvis_tz	hip_flexion_r	hip_adduction_r	hip_rotation_r	knee_angle_r	ankle_angle_r	subtalar_angle_r	mtp_angle_r	hip_flexion_l	hip_adduction_l	hip_rotation_l	knee_angle_l	ankle_angle_l	subtalar_angle_l	mtp_angle_l	lumbar_extension	lumbar_bending	lumbar_rotation	arm_flex_r	arm_add_r	arm_rot_r	elbow_flex_r	pro_sup_r	wrist_flex_r	wrist_dev_r	arm_flex_l	arm_add_l	arm_rot_l	elbow_flex_l	pro_sup_l	wrist_flex_l	wrist_dev_l
20.68	1.8615	1.41305	-0.135908	0.679725	1.75683	0.92764	0.202403	0.0808911	-0.14939	0.553492	-0.192202	0	0	-0.154216	-0.175885	0.244456	0.710499	-0.0585002	0	0	-0.604026	0.295378	0.00974084	-0.218715	-0.379723	-0.0745337	1.4223	1.5708	0	0	-0.143714	-0.195531	-0.0844338	1.17535	1.5708	0	0
20.69	1.90013	1.41445	-0.176593	0.680697	1.75914	0.928512	0.190458	0.0807195	-0.150642	0.54768	-0.191693	0	0	-0.153811	-0.173408	0.246083	0.724777	-0.0676377	0	0	-0.608665	0.291176	0.0126029	-0.223279	-0.375716	-0.0753852	1.41919	1.5708	0	0	-0.142813	-0.197407	-0.082178	1.16803	1.5708	0	0
20.7	1.94362	1.41538	-0.222312	0.681646	1.7613	0.929416	0.178342	0.0802664	-0.151455	0.542218	-0.191507	0	0	-0.153411	-0.170581	0.247781	0.740675	-0.075892	0	0	-0.614243	0.28688	0.0156499	-0.227498	-0.37171	-0.0766227	1.41643	1.5708	0	0	-0.142148	-0.199569	-0.079311	1.16096	1.5708	0	0
20.71	1.98758	1.41583	-0.268751	0.682538	1.76337	0.93032	0.166598	0.0795351	-0.152006	0.536992	-0.19178	0	0	-0.152543	-0.167438	0.249579	0.757797	-0.0832853	0	0	-0.620242	0.282899	0.0186825	-0.231253	-0.367999	-0.0780802	1.4141	1.5708	0	0	-0.141389	-0.201655	-0.0767072	1.15412	1.5708	0	0
20.72	2.03485	1.41558	-0.318588	0.683327	1.76532	0.931268	0.154192	0.0788607	-0.152826	0.531216	-0.192735	0	0	-0.151497	-0.1641	0.250924	0.776466	-0.0900721	0	0	-0.626873	0.27922	0.0222649	-0.234965	-0.364775	-0.080146	1.41207	1.5708	0	0	-0.139923	-0.203419	-0.0739514	1.1476	1.5708	0	0
20.73	2.0778	1.41508	-0.363965	0.684186	1.76725	0.932181	0.14257	0.0786502	-0.153586	0.525721	-0.193928	0	0	-0.149412	-0.161038	0.252064	0.794951	-0.0949756	0	0	-0.632878	0.275477	0.0257183	-0.23848	-0.361477	-0.0819185	1.40954	1.5708	0	0	-0.138605	-0.204872	-0.0720274	1.1418	1.5708	0	0
20.74	2.11953	1.41422	-0.408381	0.685023	1.76912	0.933086	0.131234	0.0786056	-0.153621	0.520357	-0.195198	0	0	-0.147093	-0.158007	0.252453	0.813046	-0.0989322	0	0	-0.638858	0.27152	0.029265	-0.241787	-0.358398	-0.0833748	1.40706	1.5708	0	0	-0.137561	-0.205831	-0.0704099	1.13636	1.5708	0	0
20.75	2.16016	1.41323	-0.451723	0.685884	1.77091	0.933994	0.12044	0.0782893	-0.152735	0.515276	-0.19666	0	0	-0.144362	-0.154904	0.252562	0.830287	-0.10208	0	0	-0.644568	0.267323	0.0326536	-0.244769	-0.355349	-0.0845396	1.40454	1.5708	0	0	-0.136574	-0.206775	-0.0686926	1.13107	1.5708	0	0
20.76	2.20127	1.41222	-0.495466	0.686757	1.77261	0.934916	0.109808	0.0777369	-0.151063	0.510489	-0.197952	0	0	-0.141482	-0.151584	0.252694	0.84637	-0.103691	0	0	-0.650252	0.262832	0.0357429	-0.247434	-0.352379	-0.08561	1.40206	1.5708	0	0	-0.135662	-0.208088	-0.0666917	1.12634	1.5708	0	0
20.77	2.24134	1.41117	-0.538008	0.687595	1.77422	0.935824	0.0996606	0.0769568	-0.14919	0.506275	-0.199229	0	0	-0.138177	-0.148207	0.252527	0.861282	-0.103823	0	0	-0.656214	0.258484	0.03866	-0.250298	-0.349452	-0.0869481	1.40022	1.5708	0	0	-0.135167	-0.209488	-0.0648705	1.12297	1.5708	0	0
20.78	2.27985	1.41013	-0.579085	0.688384	1.77574	0.936701	0.0901614	0.0759863	-0.146849	0.502643	-0.20034	0	0	-0.134187	-0.144648	0.251502	0.874988	-0.10222	0	0	-0.661868	0.253992	0.0414911	-0.252945	-0.346672	-0.0883816	1.39812	1.5708	0	0	-0.134739	-0.210773	-0.0632088	1.12039	1.5708	0	0
20.79	2.31684	1.40924	-0.618555	0.689169	1.77718	0.93754	0.0812178	0.0749048	-0.144439	0.499194	-0.201127	0	0	-0.129612	-0.141284	0.249742	0.886945	-0.0991761	0	0	-0.667006	0.249258	0.0438593	-0.255063	-0.343517	-0.0897256	1.39524	1.5708	0	0	-0.134239	-0.211955	-0.061981	1.11773	1.5708	0	0
20.8	2.35086	1.40857	-0.654843	0.689969	1.77854	0.938316	0.0734521	0.0735558	-0.142358	0.496501	-0.20166	0	0	-0.124271	-0.138135	0.24817	0.896795	-0.0962989	0	0	-0.671507	0.244364	0.0458565	-0.256761	-0.340463	-0.0903848	1.39196	1.5708	0	0	-0.133481	-0.213094	-0.0610397	1.11433	1.5708	0	0
20.81	2.38609	1.40801	-0.692214	0.690725	1.77977	0.939074	0.0661186	0.0714707	-0.140316	0.494219	-0.202241	0	0	-0.118287	-0.134865	0.245965	0.905536	-0.0937766	0	0	-0.675976	0.238965	0.0474657	-0.258094	-0.33738	-0.0908987	1.38868	1.5708	0	0	-0.1324	-0.214259	-0.0601935	1.11037	1.5708	0	0
20.82	2.42073	1.40735	-0.729029	0.691393	1.78088	0.939813	0.0591637	0.0689239	-0.138545	0.492106	-0.203165	0	0	-0.112003	-0.131576	0.243553	0.912377	-0.0911824	0	0	-0.680418	0.233531	0.0491976	-0.25954	-0.334477	-0.0918527	1.38603	1.5708	0	0	-0.131092	-0.215264	-0.0591184	1.10635	1.5708	0	0
20.83	2.51158	1.41463	-0.819497	0.693409	1.78367	0.938212	0.0639448	0.0489442	-0.154821	0.53362	-0.178978	0	0	-0.107113	-0.120705	0.234274	0.919931	-0.0822353	0	0	-0.67685	0.215478	0.0432177	-0.26899	-0.322909	-0.096177	1.38483	1.5708	0	0	-0.135952	-0.22622	-0.0532273	1.10998	1.5708	0	0
20.84	2.48552	1.40669	-0.797664	0.692601	1.78298	0.94115	0.047331	0.0626696	-0.138178	0.490501	-0.19716	0	0	-0.0971412	-0.125154	0.237735	0.920922	-0.0837617	0	0	-0.687458	0.222857	0.0527955	-0.263768	-0.327264	-0.0966139	1.38152	1.5708	0	0	-0.127701	-0.218635	-0.0534765	1.09825	1.5708	0	0
20.85	2.5687	1.41425	-0.878768	0.694601	1.78574	0.939439	0.0533199	0.0434793	-0.155242	0.52954	-0.179283	0	0	-0.0894052	-0.115353	0.230154	0.924724	-0.0781612	0	0	-0.682199	0.206032	0.0445471	-0.271829	-0.317077	-0.0977571	1.37924	1.5708	0	0	-0.134264	-0.228941	-0.0507922	1.104	1.5708	0	0
20.86	2.59285	1.41431	-0.903502	0.695123	1.78669	0.939991	0.0495185	0.0406443	-0.156251	0.529394	-0.177207	0	0	-0.0797951	-0.112949	0.229331	0.924084	-0.0762941	0	0	-0.684458	0.202026	0.0445752	-0.272893	-0.314955	-0.0977149	1.37671	1.5708	0	0	-0.133914	-0.229851	-0.050879	1.102	1.5708	0	0
20.87	2.56046	1.40644	-0.874319	0.694177	1.78582	0.94299	0.0329048	0.0541414	-0.143449	0.485157	-0.199186	0	0	-0.0699603	-0.118137	0.234291	0.918961	-0.0774017	0	0	-0.695256	0.210389	0.0530308	-0.266538	-0.319133	-0.0984375	1.37281	1.5708	0	0	-0.12587	-0.222256	-0.0516086	1.09173	1.5708	0	0
20.88	2.5861	1.40552	-0.900162	0.694622	1.78658	0.943651	0.027349	0.0518495	-0.144169	0.48205	-0.204314	0	0	-0.0619016	-0.115941	0.23403	0.914261	-0.0753767	0	0	-0.69844	0.206809	0.0529143	-0.2669	-0.31711	-0.0986112	1.37035	1.5708	0	0	-0.124876	-0.22323	-0.0508218	1.09013	1.5708	0	0
20.89	2.60997	1.40537	-0.924167	0.695047	1.78731	0.94423	0.0231225	0.0491365	-0.14507	0.479941	-0.206985	0	0	-0.053052	-0.113384	0.233748	0.908207	-0.0726512	0	0	-0.701076	0.202997	0.0526543	-0.267309	-0.315081	-0.0986693	1.36752	1.5708	0	0	-0.123993	-0.224271	-0.0497434	1.08896	1.5708	0	0
20.9	2.63304	1.4055	-0.947249	0.695462	1.78798	0.94476	0.0194939	0.0462844	-0.146106	0.478095	-0.209181	0	0	-0.0437671	-0.110813	0.23323	0.900656	-0.0695172	0	0	-0.703183	0.19907	0.0522334	-0.267504	-0.312757	-0.0989956	1.36401	1.5708	0	0	-0.122944	-0.225572	-0.0482196	1.08765	1.5708	0	0
20.91	2.65581	1.40594	-0.969887	0.695877	1.78859	0.945267	0.0163511	0.043287	-0.146796	0.476435	-0.211041	0	0	-0.0342168	-0.10806	0.232825	0.891582	-0.0663836	0	0	-0.704613	0.194902	0.0516451	-0.267398	-0.310135	-0.099546	1.35979	1.5708	0	0	-0.121369	-0.227053	-0.0463583	1.08516	1.5708	0	0
20.92	2.67713	1.40664	-0.991115	0.696264	1.78915	0.945749	0.0137163	0.040282	-0.146916	0.475007	-0.212399	0	0	-0.0245928	-0.105274	0.232622	0.880783	-0.0632983	0	0	-0.705697	0.190909	0.0506296	-0.266993	-0.307487	-0.0999598	1.35571	1.5708	0	0	-0.119706	-0.228638	-0.0446711	1.08136	1.5708	0	0
20.93	2.69604	1.40766	-1.00978	0.6966	1.78968	0.946173	0.0116345	0.0373898	-0.146877	0.473596	-0.213257	0	0	-0.0148792	-0.102513	0.232918	0.868305	-0.0599741	0	0	-0.706063	0.187063	0.0494329	-0.266617	-0.305257	-0.100123	1.35179	1.5708	0	0	-0.11827	-0.230081	-0.0431419	1.07755	1.5708	0	0
20.94	2.71278	1.40908	-1.02584	0.696903	1.79023	0.946511	0.0101135	0.0346206	-0.14712	0.472371	-0.213736	0	0	-0.00485183	-0.0999183	0.23383	0.854886	-0.0567556	0	0	-0.705302	0.183622	0.0478524	-0.2662	-0.302771	-0.100175	1.3473	1.5708	0	0	-0.117258	-0.231434	-0.0417475	1.07437	1.5708	0	0
20.95	2.72773	1.41073	-1.04013	0.69716	1.79079	0.946773	0.00918575	0.0318374	-0.147386	0.471695	-0.21424	0	0	0.00509431	-0.0974094	0.234668	0.840792	-0.0540126	0	0	-0.703595	0.180533	0.046277	-0.265823	-0.300355	-0.100216	1.34246	1.5708	0	0	-0.116472	-0.232553	-0.0402873	1.07161	1.5708	0	0
20.96	2.73937	1.41267	-1.05119	0.697332	1.79137	0.946995	0.00887523	0.0293194	-0.147739	0.471113	-0.21452	0	0	0.0149859	-0.0949524	0.235529	0.826035	-0.0515375	0	0	-0.702193	0.17812	0.0451869	-0.266155	-0.298465	-0.100489	1.33883	1.5708	0	0	-0.115985	-0.233204	-0.0392277	1.06973	1.5708	0	0
20.97	2.75049	1.41408	-1.06159	0.697407	1.79191	0.947239	0.0081731	0.0271659	-0.147884	0.470481	-0.214633	0	0	0.0239077	-0.0924598	0.236517	0.811104	-0.0489229	0	0	-0.701314	0.176493	0.0433316	-0.265887	-0.296822	-0.100078	1.33554	1.5708	0	0	-0.115786	-0.23361	-0.0391447	1.06788	1.5708	0	0
20.98	2.76196	1.41487	-1.07227	0.697384	1.79242	0.947506	0.00691914	0.0253025	-0.147638	0.469804	-0.214661	0	0	0.0316	-0.089887	0.237793	0.796422	-0.045881	0	0	-0.700873	0.175228	0.04131	-0.265357	-0.295421	-0.0996253	1.33251	1.5708	0	0	-0.115511	-0.233674	-0.039592	1.06578	1.5708	0	0
20.99	2.77322	1.41514	-1.08279	0.697245	1.79292	0.947768	0.00530378	0.0236413	-0.147078	0.469161	-0.214799	0	0	0.0382028	-0.0871931	0.23924	0.78245	-0.0424048	0	0	-0.700863	0.174301	0.0393586	-0.264879	-0.294328	-0.0994512	1.33001	1.5708	0	0	-0.115432	-0.233555	-0.0400514	1.06376	1.5708	0	0
21	2.78402	1.41497	-1.09302	0.697005	1.79339	0.948037	0.00333242	0.0222763	-0.146015	0.468257	-0.214984	0	0	0.0437063	-0.0844538	0.240711	0.769242	-0.0385171	0	0	-0.701201	0.1737	0.0377676	-0.264583	-0.293734	-0.0993727	1.32792	1.5708	0	0	-0.115417	-0.233196	-0.040308	1.06203	1.5708	0	0
21.01	2.79522	1.41447	-1.1037	0.696747	1.7939	0.94828	0.00141344	0.0208511	-0.145044	0.468339	-0.215034	0	0	0.048195	-0.0816651	0.242105	0.756963	-0.0344331	0	0	-0.701538	0.173099	0.0363121	-0.264494	-0.293513	-0.099249	1.32609	1.5708	0	0	-0.11558	-0.232832	-0.040471	1.06048	1.5708	0	0
21.02	2.80582	1.41357	-1.11383	0.696443	1.79447	0.948508	-0.00079724	0.0195318	-0.144756	0.468676	-0.215207	0	0	0.0517006	-0.0789917	0.243566	0.745598	-0.0305231	0	0	-0.701937	0.172686	0.0349405	-0.264508	-0.293645	-0.0988981	1.32448	1.5708	0	0	-0.115874	-0.232387	-0.0406508	1.05876	1.5708	0	0
21.03	2.87692	1.41917	-1.18205	0.69739	1.79664	0.94635	0.00840604	0.00389896	-0.153764	0.503104	-0.194167	0	0	0.0571599	-0.0681873	0.238754	0.739208	-0.0220772	0	0	-0.69246	0.160574	0.02553	-0.270464	-0.28758	-0.0980636	1.32243	1.5708	0	0	-0.12295	-0.240029	-0.0391367	1.06384	1.5708	0	0
21.04	2.87989	1.41824	-1.1844	0.696953	1.79731	0.946311	0.00738833	0.00334331	-0.154017	0.50556	-0.190154	0	0	0.0607892	-0.0666237	0.240931	0.731217	-0.0220531	0	0	-0.691855	0.161353	0.0247061	-0.271537	-0.288243	-0.0976952	1.32145	1.5708	0	0	-0.123961	-0.239324	-0.0391945	1.06311	1.5708	0	0
